<svg preserveAspectRatio="none" width="100%" height="100%" overflow="visible" style="display: block;" viewBox="0 0 66.6494 102.739" fill="none" xmlns="http://www.w3.org/2000/svg">
<g id="Layer 1">
<path id="Vector" d="M-nan -nanL38.703 7.78688C39.1693 7.0951 39.4364 6.30245 39.4785 5.48578C39.5294 5.11901 39.4936 4.74626 39.3736 4.39382C39.2537 4.04138 39.0524 3.71783 38.7842 3.44598C38.5587 3.24369 38.2792 3.08354 38.0718 2.86439C37.8644 2.64524 37.7652 2.41766 37.5938 2.20693C37.4081 1.98086 37.1691 1.79786 36.8954 1.67214C36.6217 1.54643 36.3207 1.48137 36.0158 1.48205C35.3935 1.48205 34.7353 1.75177 34.2122 1.48205C33.8876 1.33032 33.6712 1.02688 33.3105 0.858305C32.971 0.696803 32.5816 0.652047 32.2103 0.731872C31.8861 0.837592 31.5436 0.886178 31.2004 0.875163C30.7134 0.807732 30.3798 0.403144 29.9469 0.175563C29.7244 0.0692302 29.4797 0.00967881 29.23 0.00108448C28.9803 -0.00750984 28.7316 0.035061 28.5013 0.125812C28.271 0.216563 28.0648 0.353297 27.897 0.526426C27.7293 0.699556 27.6041 0.90489 27.5302 1.12803C27.4714 1.34088 27.4714 1.56421 27.5302 1.77706C27.6294 2.29122 28.0081 2.70424 28.0352 3.2184C28.0622 3.73257 27.7286 4.1793 28.0352 4.63446C28.3418 5.08962 28.7927 5.10648 29.0091 5.53636C29.2977 6.11795 29.0091 6.87655 29.2706 7.50029C29.4059 7.89645 29.478 8.46119 29.8748 8.71406C30.4249 9.06807 31.6242 8.77306 32.2825 8.71406L34.8345 8.52019C35.9617 8.41905 37.3504 8.52019 38.3694 7.9976C38.4924 7.9453 38.6052 7.87407 38.703 7.78688L-nan -nanL-nan -nanZ" fill="var(--fill-0, #3B2645)"/>
<path id="Vector_2" d="M-nan -nanL30.0465 7.41594C29.957 7.30101 29.8396 7.20749 29.7041 7.14301C29.5685 7.07853 29.4186 7.04492 29.2665 7.04492C29.1144 7.04492 28.9644 7.07853 28.8289 7.14301C28.6933 7.20749 28.576 7.30101 28.4864 7.41594C27.994 7.94501 28.3329 8.80615 28.9055 9.39906C29.4135 9.92508 30.0917 9.44152 30.091 8.71025C30.0905 8.2786 30.0757 7.84695 30.0465 7.41594L-nan -nanL-nan -nanZ" fill="var(--fill-0, #E0855C)"/>
<path id="Vector_3" d="M-nan -nanL42.7164 21.5344C42.4787 22.9542 42.1596 24.3611 41.7605 25.7489C41.6974 26.0102 41.6433 26.2631 41.6072 26.5075C41.5788 26.7 41.5504 26.8559 41.5176 27.0658C41.4985 27.1878 41.49 27.3112 41.49 27.4347C41.49 27.637 41.4269 27.8477 41.3998 28.0753L41.0389 31.2217C40.572 35.2916 37.6216 38.7675 33.5251 38.7844C30.0226 38.7989 27.1686 38.2664 26.1947 38.0597C25.9817 38.0145 25.8355 37.8262 25.8355 37.6084C25.7182 36.4873 25.3575 32.9219 24.9968 28.9013C24.9968 28.9013 24.9968 28.8423 24.9968 28.817C25.0005 28.7553 25.0005 28.6933 24.9968 28.6316C24.8435 26.9458 24.6993 25.1589 24.582 23.4562C24.3656 20.4977 24.2303 17.7667 24.2574 16.0725C24.2574 15.4488 25.8174 15.5162 26.8815 15.3813C27.666 15.2802 28.4686 15.2127 29.163 15.179C29.8573 15.1453 30.3803 15.1285 30.732 15.1285C30.9569 15.1285 31.1447 14.9573 31.1655 14.7334C31.1905 14.4641 31.219 14.1554 31.219 14.1507L31.4252 12.1377C31.4449 11.9451 31.6303 11.8157 31.8232 11.8327C32.0463 11.8718 32.2725 11.8944 32.4995 11.9002C32.7971 11.9002 33.0766 11.9002 33.3381 11.9002L33.7259 11.858C33.8759 11.858 34.0259 11.8465 34.1732 11.8183C34.3466 11.7852 34.5141 11.7478 34.6727 11.7063C34.8982 11.6473 34.9703 11.622 35.1146 11.5799C35.7734 11.3826 36.3988 11.0988 36.9722 10.737L37.0534 10.6864L37.2067 10.5768C37.2522 10.5449 37.3149 10.5775 37.3149 10.6332C37.3149 10.6682 37.3149 10.6942 37.3149 10.7201C37.2427 11.2764 37.1616 11.9845 37.1255 12.6841C37.1255 13.1729 37.0714 13.6534 37.0534 14.0664C37.0353 14.4794 36.891 15.0779 37.2067 15.2886C37.3193 15.3477 37.4409 15.3904 37.5674 15.415C38.0623 15.4881 38.5633 15.5191 39.0643 15.5078C39.2176 15.5078 39.3709 15.5078 39.5242 15.5078C39.9086 15.4868 40.294 15.4868 40.6784 15.5078C40.9471 15.507 41.2132 15.5566 41.461 15.6536C41.9486 15.8445 42.3213 16.2706 42.4748 16.7712C42.5112 16.8899 42.5377 17.0113 42.5541 17.1345L42.6623 17.8257C42.8339 19.0558 42.8521 20.3004 42.7164 21.5344L-nan -nanL-nan -nanZ" fill="var(--fill-0, #FFEDE5)"/>
<path id="Vector_4" d="M-nan -nanL37.2785 10.4419C37.1566 11.0451 36.8931 11.6156 36.5072 12.1123C36.1212 12.609 35.6223 13.0196 35.0463 13.3146C34.4704 13.6095 33.8316 13.7816 33.176 13.8183C32.7646 13.8413 32.3529 13.8107 31.9527 13.7282C31.5327 13.6416 31.2839 13.23 31.3258 12.8033C31.3798 12.2531 31.8928 11.8714 32.4451 11.8963C33.1373 11.9275 33.8326 11.8654 34.5092 11.7105C35.5193 11.4791 36.464 11.0464 37.2785 10.4419L-nan -nanL-nan -nanZ" fill="var(--fill-0, #E0855C)"/>
<path id="Vector_5" d="M30.2271 4.88761C29.7041 5.39335 29.659 6.52282 29.623 7.7703C29.4877 11.5633 30.7051 12.7434 32.7701 12.9541C34.8351 13.1648 37.0084 12.4146 37.4502 8.90821C37.6757 7.14656 37.9101 5.53664 37.2248 4.76961C36.2419 3.64013 31.8142 3.33669 30.2271 4.88761Z" fill="var(--fill-0, #FFEDE5)"/>
<path id="Vector_6" d="M36.8546 10.4921C36.767 9.06787 37.6798 6.74695 38.7758 7.66068C39.7767 8.49514 38.3971 10.8637 36.8641 10.6867C36.8678 10.6867 36.862 10.6134 36.8546 10.4921Z" fill="var(--fill-0, #FFEDE5)"/>
<path id="Vector_7" d="M38.3665 8.38315C38.3462 8.37438 38.3232 8.38001 38.3021 8.38671C38.132 8.4407 37.9755 8.52548 37.8412 8.63575C37.7565 8.70532 37.6755 8.77975 37.5963 8.85543C37.5053 8.94227 37.4253 9.03862 37.3579 9.14256C37.3015 9.22945 37.3115 9.40861 37.3872 9.33788C37.4389 9.29002 37.4895 9.24115 37.5389 9.19129C37.6552 9.07407 37.8466 9.07328 37.9972 9.14097C38.0283 9.15493 38.0638 9.16347 38.096 9.15266C38.1599 9.13126 38.2006 9.07171 38.1717 9.01758C38.0873 8.897 38.0847 8.70302 38.2042 8.61704C38.2648 8.57339 38.3241 8.52806 38.3819 8.48112C38.3977 8.46827 38.4114 8.45015 38.4068 8.43028C38.4045 8.42003 38.3996 8.41044 38.3926 8.40226C38.3856 8.39408 38.3767 8.38754 38.3665 8.38315Z" fill="var(--fill-0, #E0855C)"/>
<path id="Vector_8" d="M31.6067 7.23042C31.5789 7.58043 31.1047 7.71034 31.0963 7.35933C31.0953 7.31855 31.0969 7.27296 31.1017 7.22199C31.1039 7.19813 31.1064 7.17547 31.1093 7.15397C31.1566 6.7941 31.6353 6.86859 31.6067 7.23042Z" fill="var(--fill-0, #3B2645)"/>
<path id="Vector_9" d="M35.1506 7.23042C35.1228 7.58032 34.6539 7.70383 34.6489 7.35286C34.6484 7.31375 34.6501 7.27028 34.6546 7.22199C34.6566 7.20062 34.6588 7.18022 34.6613 7.16074C34.7066 6.80102 35.1792 6.86898 35.1506 7.23042Z" fill="var(--fill-0, #3B2645)"/>
<g id="Vector_10">
</g>
<path id="Vector_11" d="M31.7778 5.92417C31.6361 5.84918 31.4728 5.81778 31.3109 5.83443C31.1622 5.84971 31.0217 5.90484 30.9061 5.99278C30.8859 6.0082 30.8664 6.02862 30.8677 6.05406C30.8683 6.06692 30.8724 6.07941 30.8796 6.09037C30.8868 6.10133 30.8969 6.11039 30.9089 6.11671C30.9209 6.12302 30.9344 6.12638 30.9482 6.12647C31.0744 6.12647 31.1826 6.05904 31.3089 6.05061C31.4411 6.04472 31.5732 6.06482 31.6966 6.10961C31.8139 6.14333 31.895 5.97475 31.7778 5.92417Z" fill="var(--fill-0, #3B2645)"/>
<path id="Vector_12" d="M-nan -nanL35.4749 6.21076C35.3306 5.87361 34.7084 5.84832 34.4378 6.05061C34.4247 6.06006 34.4141 6.0722 34.4068 6.08608C34.3995 6.09996 34.3957 6.11522 34.3957 6.13069C34.3957 6.14615 34.3995 6.16142 34.4068 6.1753C34.4213 6.20281 34.4542 6.21215 34.4853 6.2141C34.5924 6.22081 34.6997 6.22201 34.8069 6.21771C34.8853 6.21457 34.9643 6.21517 35.0407 6.2329C35.105 6.24782 35.1682 6.26694 35.2296 6.29013C35.2786 6.3086 35.3185 6.35188 35.3701 6.36091C35.3971 6.36565 35.4251 6.36016 35.4478 6.34563C35.4705 6.33109 35.4862 6.30872 35.4912 6.28343C35.4963 6.25814 35.4904 6.232 35.4749 6.21076L-nan -nanL-nan -nanZ" fill="var(--fill-0, #3B2645)"/>
<path id="Vector_13" d="M32.7063 11.0009C32.3379 10.8693 32.5886 10.4488 32.9782 10.4133C33.1976 10.3932 33.4149 10.3554 33.6274 10.3002C33.8744 10.2362 34.0769 10.4723 33.8848 10.6402C33.6938 10.8071 33.4675 10.9349 33.2206 11.0152C33.0198 11.067 32.8491 11.052 32.7063 11.0009Z" fill="var(--fill-0, white)"/>
<path id="Vector_14" d="M27.5576 16.0643C29.6317 17.4213 29.821 20.0596 28.8111 22.1668C28.1257 23.5745 26.8542 24.5606 26.1058 25.8924C25.3258 27.184 24.4203 28.4058 23.4005 29.5421C21.1641 32.1972 19.036 34.5995 18.2154 35.5098C15.3929 38.6622 9.45931 42.8261 7.32214 44.2759C6.84487 44.6063 6.21315 44.6527 5.78581 44.2598C5.46586 43.9656 5.13783 43.5538 5.0078 43.0309C4.83319 42.3287 5.30877 41.6751 5.82054 41.1636C7.88218 39.1034 13.385 33.5699 14.3559 32.2394C15.6812 30.103 16.8853 27.9028 17.9629 25.648C19.3456 23.1474 20.7854 20.6805 22.2823 18.2474C22.9677 17.1263 23.8424 15.7187 25.3483 15.4658C25.956 15.402 26.5696 15.5232 27.0977 15.8114C27.2573 15.8853 27.411 15.9698 27.5576 16.0643Z" fill="var(--fill-0, #FFEDE5)"/>
<path id="Vector_15" d="M-nan -nanL5.04076 41.9496C5.11702 41.9441 5.1934 41.9405 5.26981 41.9388C5.45492 41.9346 5.92866 42.0741 6.08206 42.1778C6.54423 42.4902 7.27925 43.0985 7.3544 43.8465C7.38254 44.1265 7.20741 44.3741 6.9916 44.5547C6.93117 44.6053 6.86368 44.6616 6.79018 44.7227C6.46554 44.9924 6.11386 45.3127 5.69003 45.7173C5.2662 46.1219 4.30132 47.4031 3.88651 47.2935C3.78983 47.2601 3.70536 47.2016 3.64304 47.1249L2.8044 46.282C2.74253 46.2175 2.67517 46.1472 2.60621 46.0721C2.36033 45.8045 0.594928 45.0439 0.260746 44.9011C0.21701 44.8824 0.193629 44.8538 0.16729 44.8142C0.074277 44.6743 0.109811 44.4858 0.247025 44.3889C0.696312 44.0717 1.64285 43.3958 2.10103 43.0116C2.92824 42.3633 3.96213 41.9898 5.04076 41.9496L-nan -nanL-nan -nanZ" fill="var(--fill-0, #FFEDE5)"/>
<path id="Vector_16" d="M30.0644 29.0734C30.0524 29.0477 30.0169 29.055 30.018 29.0833C30.0186 29.0991 30.033 29.1126 30.0489 29.1126C30.055 29.1126 30.0613 29.1126 30.0669 29.1126C30.0798 29.1126 30.0793 29.1051 30.0738 29.0935L30.0644 29.0734Z" fill="var(--fill-0, #D6BED3)"/>
<path id="Vector_17" d="M33.3648 56.2955C32.8939 59.8218 32.3765 63.0874 32.0171 65.252C31.7237 67.0188 31.6634 68.8139 31.7247 70.6039C31.7483 71.2928 31.7597 71.9959 31.7597 72.7066C31.7597 75.977 31.5252 79.4497 31.2277 82.5094C30.8489 86.412 30.3259 89.733 30.1005 91.4019V91.6126C30.4341 102.68 27.0615 104.146 25.4835 101.727C23.9054 99.3082 25.4835 92.1774 25.4835 92.1774C25.4885 92.1128 25.4885 92.048 25.4835 91.9835C24.8195 88.6718 24.3768 85.3247 24.1579 81.9615C23.6168 73.8192 24.5456 68.2477 24.4374 67.2362C22.5527 49.5355 25.1859 39.7748 25.1859 39.7748C25.597 38.3565 26.3392 37.041 27.3591 35.9228C29.2799 33.9841 31.5884 34.473 33.0402 36.8415C33.1929 37.0844 33.3313 37.3348 33.455 37.5917C34.0466 38.9521 34.3822 40.3979 34.4469 41.8652C34.5912 45.5317 34.0412 51.1875 33.3648 56.2955Z" fill="var(--fill-0, #FFEDE5)"/>
<path id="Vector_18" d="M42.6803 81.5314C42.4706 84.9647 42.0309 88.3823 41.3638 91.7641C41.3102 92.0365 41.3129 92.3132 41.3664 92.5856C41.6712 94.1368 42.6338 99.6775 41.2826 101.727C39.7045 104.121 36.368 102.722 36.6656 91.7641C36.6656 91.6687 36.6581 91.5739 36.6432 91.4797C36.3842 89.8385 35.8967 86.4889 35.5114 82.5429C35.2048 79.4579 34.9703 76.002 34.9703 72.7316C34.9703 72.0269 34.9829 71.334 35.0075 70.656C35.0733 68.8371 35.0077 67.012 34.706 65.217C34.3423 63.0532 33.8267 59.8099 33.3742 56.3121C32.6979 51.1957 32.1388 45.5399 32.3732 41.907C32.4407 40.4392 32.7794 38.9934 33.3742 37.6336C33.4923 37.3688 33.631 37.1124 33.789 36.8665C35.4573 34.1609 38.2347 33.9248 40.2817 36.9761C40.868 37.8606 41.3288 38.8126 41.6523 39.8082C41.6523 39.8082 44.2855 49.5436 42.4008 67.2697C42.2655 68.2643 43.1583 73.6419 42.6803 81.5314Z" fill="var(--fill-0, #FFEDE5)"/>
<path id="Vector_19" d="M-nan -nanL4.62587 45.9276C4.67693 45.8784 4.7194 45.8221 4.75179 45.7606C4.7582 45.7485 4.76302 45.7355 4.76601 45.7221C4.78407 45.6412 4.78375 45.5576 4.765 45.4767C4.74469 45.389 4.70327 45.3069 4.6439 45.2365C4.31025 44.7223 3.62492 43.8963 2.9486 43.8204C2.72531 43.8098 2.50293 43.854 2.3036 43.9486C2.10426 44.0433 1.9349 44.185 1.81238 44.3598C1.61002 44.632 1.48132 44.946 1.43734 45.2748C1.39336 45.6037 1.43542 45.9376 1.55989 46.2479C1.75781 46.8062 2.16441 47.279 2.70512 47.5797C2.97494 47.6866 3.27851 47.6919 3.55241 47.5945C3.82631 47.4971 4.04937 47.3046 4.17499 47.0571C4.31026 46.7452 4.26517 46.3659 4.48159 46.1046C4.52263 46.0409 4.57101 45.9815 4.62587 45.9276L-nan -nanL-nan -nanZ" fill="var(--fill-0, #FFEDE5)"/>
<path id="Vector_20" d="M39.1361 16.0645C37.0531 17.4216 36.8637 20.0598 37.8827 22.1671C38.559 23.5747 39.8305 24.5609 40.588 25.8926C41.3743 27.1805 42.2795 28.4018 43.2932 29.5424C45.5296 32.1975 47.6668 34.5997 48.4784 35.51C51.3099 38.6793 57.2435 42.8263 59.3806 44.2761C59.8663 44.5996 60.5027 44.6502 60.9301 44.2529C61.2495 43.9561 61.5751 43.5409 61.7002 43.0142C61.8646 42.3215 61.3976 41.6789 60.894 41.1757C58.8417 39.1248 53.3196 33.5726 52.3469 32.2396C51.0179 30.1051 49.8138 27.9047 48.7399 25.6482C47.3512 23.1195 45.9174 20.6836 44.4114 18.2476C43.7261 17.1266 42.8604 15.7189 41.3454 15.4661C40.7377 15.4028 40.1244 15.524 39.596 15.8116C39.4363 15.8852 39.2825 15.9697 39.1361 16.0645Z" fill="var(--fill-0, #FFEDE5)"/>
<path id="Vector_21" d="M-nan -nanL61.6534 41.9494C61.5448 41.9417 61.436 41.9378 61.3271 41.9375C61.1378 41.937 60.8352 42.0256 60.6765 42.1289C60.2737 42.3911 59.586 42.921 59.3827 43.5898C59.2515 44.0215 59.552 44.4293 59.895 44.7225C60.2106 44.9922 60.5803 45.3125 60.9951 45.7171C61.4099 46.1217 62.3929 47.4029 62.7986 47.2933C62.894 47.2577 62.9779 47.1996 63.0421 47.1247L63.8717 46.2818C63.9376 46.2145 64.0091 46.1408 64.0818 46.062C64.3258 45.7979 66.0793 45.0377 66.4134 44.905C66.4652 44.8845 66.492 44.8483 66.5189 44.7995C66.593 44.6646 66.5541 44.496 66.4283 44.4074C65.9904 44.0988 65.0133 43.4033 64.539 43.0114C63.7277 42.3713 62.7138 41.9981 61.6534 41.9494L-nan -nanL-nan -nanZ" fill="var(--fill-0, #FFEDE5)"/>
<path id="Vector_22" d="M62.1404 46.0456C62.0926 45.9675 62.0271 45.9002 61.9735 45.8259C61.9355 45.7731 61.9143 45.7102 61.9113 45.6452C61.9086 45.5886 61.9143 45.5319 61.9281 45.4765C61.9499 45.3892 61.9915 45.3073 62.0502 45.2365C62.3748 44.7223 63.0602 43.8963 63.7365 43.8204C63.9598 43.8098 64.1822 43.854 64.3815 43.9486C64.5808 44.0433 64.7502 44.185 64.8727 44.3598C65.0728 44.6333 65.198 44.9484 65.2373 45.2776C65.2766 45.6068 65.2288 45.94 65.0981 46.2479C64.9062 46.8092 64.4981 47.2838 63.9529 47.5797C63.6831 47.6866 63.3795 47.6919 63.1056 47.5945C62.8317 47.4971 62.6087 47.3046 62.483 47.0571C62.3654 46.7664 62.3966 46.417 62.2187 46.1593C62.1926 46.1215 62.1644 46.0849 62.1404 46.0456Z" fill="var(--fill-0, #FFEDE5)"/>
<path id="Vector_23" d="M42.8157 76.1283V76.9712C42.8157 77.5359 42.8157 78.1175 42.8157 78.716V79.3987C42.8157 80.6734 41.8867 81.7699 40.6339 82.0047C40.1899 82.0878 39.7441 82.1616 39.2968 82.226C37.2033 82.5273 35.3275 80.9226 35.2589 78.8087C35.2589 78.2355 35.1237 76.6172 35.1147 76.398C35.0606 75.1674 35.0245 73.9368 35.0245 72.7314C35.0245 71.1637 35.0876 69.6296 35.2139 68.2051C35.2139 68.104 35.2139 68.0113 35.2139 67.9185C35.2139 67.8357 34.4148 63.5946 33.6721 58.2611C33.63 57.9584 33.183 57.9564 33.1398 58.259C32.7528 60.9897 32.3539 63.4519 32.0564 65.2069C31.7509 67.0093 31.6843 68.8411 31.745 70.6682C31.7673 71.3391 31.7782 72.0232 31.7782 72.7146C31.7782 73.9874 31.7782 75.2433 31.679 76.575C31.679 76.7942 31.4986 79.6094 31.4716 79.8792C31.3678 81.3609 30.084 82.4758 28.6022 82.3729C28.2351 82.3474 27.8691 82.3197 27.5038 82.2898C27.1332 82.261 26.726 82.2358 26.2981 82.2068C25.0227 82.1204 24.0448 81.0892 23.996 79.8117C23.996 79.6347 23.996 79.4577 23.996 79.2807C23.996 78.5053 23.996 77.7719 23.996 77.0639V76.5076C23.996 71.3997 24.528 68.0365 24.4469 67.2358C22.5622 49.5351 25.1953 39.7744 25.1953 39.7744C25.3926 39.0938 25.6661 38.4369 26.0099 37.8142C26.7156 36.536 28.255 35.9933 29.632 36.4787C30.7469 36.751 31.8978 36.873 33.0496 36.8411H33.8793C34.8802 36.8411 35.8812 36.7315 36.8731 36.7063H37.5404C39.3563 36.681 41.0121 37.8067 41.5684 39.5355C41.5976 39.626 41.6256 39.7169 41.6524 39.8081C42.3809 42.9896 42.8094 46.2246 42.9329 49.4761C43.2384 55.4112 43.0605 61.3595 42.4009 67.2695C42.2927 68.0197 42.7706 71.2311 42.8157 76.1283Z" fill="var(--fill-0, #3B2645)"/>
<path id="Vector_24" d="M30.048 91.6083C30.047 91.6111 30.0465 91.6141 30.0466 91.6171C30.1724 95.9723 29.7306 98.8368 29.0455 100.564C27.9995 103.236 26.3403 103.202 25.4385 101.761C25.195 101.361 25.0272 100.925 24.9425 100.471C24.2843 97.4622 25.4385 92.211 25.4385 92.211C25.4446 92.1332 25.5348 92.0818 25.6013 92.1228C26.0087 92.3742 26.46 92.5582 26.9354 92.6662C27.5409 92.8052 28.1783 92.7571 28.7521 92.5292C29.2556 92.3292 29.6864 92.0003 29.996 91.5823C30.0136 91.5586 30.0575 91.5804 30.048 91.6083Z" fill="url(#paint0_linear_0_70)"/>
<path id="Vector_25" d="M41.8235 100.235C41.7465 100.771 41.563 101.288 41.2824 101.761C40.3085 103.244 38.6313 103.236 37.5943 100.362C37.1102 99.0691 36.7588 97.1174 36.6821 94.4228C36.6514 93.3417 38.064 92.6421 39.1453 92.6662C39.8314 92.6071 40.4885 92.3874 41.0568 92.0297C41.193 91.9439 41.3753 92.0247 41.3586 92.1849C41.3562 92.2078 41.3563 92.2276 41.3608 92.2501C41.4455 92.6714 42.357 97.332 41.8235 100.235Z" fill="url(#paint1_linear_0_70)"/>
<path id="Vector_26" d="M-nan -nanL28.685 94.2001C28.2282 93.9455 27.7063 93.811 27.1745 93.811C26.667 93.811 26.1684 93.9335 25.7269 94.166C25.685 94.1881 -nan -nan -nan -nanL25.6314 94.2625C25.627 94.2858 25.6296 94.3098 25.639 94.3317C25.6484 94.3537 25.6641 94.3727 25.6845 94.3867C25.7049 94.4007 25.7291 94.409 25.7543 94.4108C26.2051 94.4108 26.656 94.2338 27.0798 94.2422C27.5354 94.2784 27.9858 94.3576 28.4241 94.4787C28.5019 94.5002 28.5869 94.528 28.6581 94.49C28.6936 94.471 28.7216 94.4417 28.7379 94.4066C28.7541 94.3714 28.7577 94.3323 28.7482 94.2951C28.7387 94.2579 28.7165 94.2245 28.685 94.2001L-nan -nanL-nan -nanZ" fill="var(--fill-0, #291B30)"/>
<path id="Vector_27" d="M-nan -nanL28.5404 95.5489C27.8269 95.1603 26.9987 95.001 26.1823 95.0926C26.0529 95.1071 25.8985 95.0957 25.8155 95.1961C25.7074 95.3268 25.7614 95.5761 25.9884 95.5574C26.4127 95.5193 26.8406 95.5363 27.2599 95.6079C27.6477 95.6754 27.9994 95.8271 28.3871 95.903C28.4348 95.9125 28.4846 95.906 28.5277 95.8847C28.5709 95.8633 28.6045 95.8284 28.6228 95.7861C28.6411 95.7439 28.6429 95.6969 28.6278 95.6535C28.6128 95.6101 28.5818 95.5731 28.5404 95.5489L-nan -nanL-nan -nanZ" fill="var(--fill-0, #291B30)"/>
<path id="Vector_28" d="M-nan -nanL40.4798 94.2002C39.7944 93.981 38.3065 93.8967 37.7745 94.4868C37.7024 94.5626 37.7745 94.7228 37.8737 94.7144C38.2975 94.6638 38.6672 94.5036 39.1091 94.4868C39.5245 94.4709 39.9559 94.5668 40.3507 94.5574C40.4006 94.5562 40.4516 94.562 40.5002 94.5504C40.5245 94.5446 40.5474 94.5343 40.5675 94.5203C40.5876 94.5062 40.6045 94.4885 40.6173 94.4683C40.6301 94.4481 40.6385 94.4257 40.6421 94.4025C40.6456 94.3792 40.6443 94.3556 40.638 94.3328C40.6318 94.3101 40.6208 94.2887 40.6057 94.2699C40.5907 94.2511 40.5718 94.2353 40.5502 94.2233C40.5286 94.2114 40.5046 94.2035 40.4798 94.2002L-nan -nanL-nan -nanZ" fill="var(--fill-0, #291B30)"/>
<path id="Vector_29" d="M40.8138 95.6246C40.0654 95.3127 38.1987 95.0851 37.82 96.0292C37.7659 96.1556 37.9372 96.2567 38.0454 96.1977C38.4351 95.9947 38.8693 95.8777 39.3148 95.8558C39.7602 95.8339 40.2052 95.9076 40.6155 96.0713C40.886 96.1724 41.0934 95.7341 40.8138 95.6246Z" fill="var(--fill-0, #291B30)"/>
<path id="Vector_30" d="M6.69536 15.2124C6.68084 15.1114 6.5736 14.9604 6.55569 15.0609C6.10482 17.9351 6.36633 20.9611 6.36633 23.9028C6.36633 26.9786 6.2605 30.0791 6.45001 33.1473C6.45425 33.2159 6.45845 33.2934 6.51386 33.3342C6.54249 33.3552 6.57787 33.3667 6.61431 33.3667C6.65075 33.3667 6.68613 33.3552 6.71476 33.3342C6.77016 33.2934 6.77426 33.2159 6.77831 33.1472C6.9591 30.0791 6.85327 26.9786 6.85327 23.9028C6.85327 21.0786 7.10576 18.0672 6.69536 15.2124Z" fill="var(--fill-0, #F7F8F8)"/>
<path id="Vector_31" d="M10.6147 16.1671C10.614 16.0817 10.6126 15.985 10.5444 15.9337C10.5091 15.9071 10.4652 15.8926 10.4199 15.8926C10.3745 15.8926 10.3306 15.9071 10.2953 15.9337C10.2272 15.985 10.226 16.0818 10.2258 16.1671C10.2202 18.8905 10.0395 21.6613 10.226 24.3749C10.226 24.4219 10.2459 24.4669 10.2814 24.5001C10.317 24.5333 10.3651 24.5519 10.4154 24.5519C10.4656 24.5519 10.5137 24.5333 10.5493 24.5001C10.5848 24.4669 10.6047 24.4219 10.6047 24.3749C10.8089 21.6613 10.6373 18.8905 10.6147 16.1671Z" fill="var(--fill-0, #F7F8F8)"/>
<path id="Vector_32" d="M50.9365 45.0622C50.9329 45.01 50.9285 44.9515 50.8859 44.9211C50.8639 44.9055 50.837 44.897 50.8093 44.897C50.7817 44.897 50.7548 44.9055 50.7328 44.9211C50.6902 44.9515 50.6857 45.01 50.6821 45.0622C50.4328 48.6556 50.3835 52.2588 50.5343 55.857C50.5343 59.4532 50.5343 63.0411 50.6752 66.6371C50.6775 66.6935 50.6811 66.7568 50.7268 66.7897C50.7505 66.8067 50.7795 66.816 50.8093 66.816C50.8392 66.816 50.8682 66.8067 50.8918 66.7897C50.9376 66.7568 50.9411 66.6934 50.943 66.6371C51.0663 63.0411 51.0665 59.4532 51.0844 55.857C51.2307 52.2587 51.1813 48.6558 50.9365 45.0622Z" fill="var(--fill-0, #F7F8F8)"/>
<path id="Vector_33" d="M57.884 23.785C57.8559 21.3732 57.6873 18.9646 57.3791 16.5699C57.3791 16.4266 57.1356 16.4687 57.1266 16.5699C57.057 19.1598 57.1383 21.7513 57.37 24.3329C57.4779 26.5436 57.4636 28.8042 57.7277 31.0032C57.7734 31.3834 58.1916 31.9053 58.2087 31.5228C58.3349 28.952 58.0464 26.3306 57.884 23.785Z" fill="var(--fill-0, #F7F8F8)"/>
<path id="Vector_34" d="M-nan -nanL59.6873 25.1251C59.681 25.1063 59.6684 25.0898 59.6514 25.0781C59.6343 25.0664 59.6137 25.0601 59.5926 25.0601C59.5715 25.0601 59.5509 25.0664 59.5338 25.0781C59.5009 25.1007 59.4965 25.1453 59.4938 25.1852C59.2603 28.6067 59.2423 32.038 59.44 35.4615C59.4425 35.5045 -nan -nan -nan -nanL59.4427 35.5908C59.4475 35.6121 59.4575 35.6321 59.4719 35.6492C59.4862 35.6663 59.5045 35.6802 59.5254 35.6897C59.5464 35.6993 59.5693 35.7042 59.5926 35.7042C59.6159 35.7042 59.6388 35.6993 59.6598 35.6897C59.6807 35.6802 59.699 35.6663 59.7134 35.6492C59.7277 35.6321 59.7377 35.6121 59.7425 35.5908C59.7521 35.5488 59.7427 35.5045 59.7452 35.4615C59.9441 32.018 59.9247 28.5665 59.6873 25.1251L-nan -nanL-nan -nanZ" fill="var(--fill-0, #F7F8F8)"/>
<path id="Vector_35" d="M33.0943 58.2508C33.108 57.5945 33.1988 56.9415 33.3648 56.3037C33.2746 56.9612 33.1845 57.6186 33.0943 58.2508Z" fill="var(--fill-0, #291B30)"/>
<path id="Vector_36" d="M-nan -nanL42.9055 49.4766C42.2218 45.6379 38.7515 43.8538 35.8397 43.0273C33.4211 42.3408 31.507 40.088 33.8106 39.0807C33.8336 39.0706 33.8565 39.0607 33.8793 39.0511C34.638 38.7289 35.4038 38.3923 36.0454 37.8747L36.4351 37.5603C37.0867 37.0346 37.8983 36.7248 38.7329 36.7913C39.7255 36.8704 40.6105 37.4541 41.0511 38.347C41.285 38.821 41.4858 39.3092 41.652 39.8086C42.3656 42.9917 42.785 46.2263 42.9055 49.4766L-nan -nanL-nan -nanZ" fill="var(--fill-0, #291B30)"/>
<path id="Vector_37" d="M41.2542 33.2059C41.3656 37.57 36.152 42.421 31.7943 42.1589C26.3232 41.8298 25.2741 36.3922 25.0567 30.9156C25.0205 30.0034 24.9886 29.2852 24.9784 28.9181C24.9784 28.9181 24.9784 28.8591 24.9784 28.8338C24.9856 28.7122 25.0049 28.5923 25.0538 28.4807C26.4871 25.205 26.805 19.4659 26.8675 16.479C26.8805 15.8576 27.3656 15.3274 27.9847 15.2733C28.6495 15.2151 29.1943 15.7169 29.2782 16.3789C29.6792 19.5426 30.7112 24.8938 33.0672 24.6278C35.3408 24.371 36.6074 19.8664 37.2275 16.8318C37.3943 16.0156 38.1682 15.475 39.0008 15.4487C39.25 15.4487 39.4472 15.6571 39.4441 15.9063C39.4006 19.4828 41.139 25.9243 41.4589 27.0754C41.4918 27.1939 41.5077 27.3116 41.5077 27.4346C41.5077 27.6369 41.4446 27.8476 41.4175 28.0752C41.4175 28.0752 41.4175 28.1679 41.4175 28.2185C41.2392 29.7106 41.2101 31.4801 41.2542 33.2059Z" fill="url(#paint2_linear_0_70)"/>
</g>
<defs>
<linearGradient id="paint0_linear_0_70" x1="30.1186" y1="102.736" x2="22.9163" y2="102.472" gradientUnits="userSpaceOnUse">
<stop stop-color="#A3E6E5"/>
<stop offset="1" stop-color="#8BD5F2"/>
</linearGradient>
<linearGradient id="paint1_linear_0_70" x1="41.99" y1="102.739" x2="34.8624" y2="102.472" gradientUnits="userSpaceOnUse">
<stop stop-color="#A3E6E5"/>
<stop offset="1" stop-color="#8BD5F2"/>
</linearGradient>
<linearGradient id="paint2_linear_0_70" x1="41.7962" y1="42.2065" x2="19.1435" y2="41.1075" gradientUnits="userSpaceOnUse">
<stop stop-color="#A3E6E5"/>
<stop offset="1" stop-color="#8BD5F2"/>
</linearGradient>
</defs>
</svg>
